<mxfile host="app.diagrams.net" agent="Mozilla/5.0 (Windows NT 10.0; Win64; x64) AppleWebKit/537.36 (KHTML, like Gecko) Chrome/137.0.0.0 Safari/537.36" version="27.1.3">
  <diagram name="第 1 页" id="MMEDQSxOLWcBRA4XjYcd">
    <mxGraphModel dx="2185" dy="748" grid="1" gridSize="10" guides="1" tooltips="1" connect="1" arrows="1" fold="1" page="1" pageScale="1" pageWidth="827" pageHeight="1169" math="0" shadow="0">
      <root>
        <mxCell id="0" />
        <mxCell id="1" parent="0" />
        <mxCell id="aFlYWg9zhVKmgG-HFgYg-1" value="VPSS&#xa;/dev/media2-6" style="whiteSpace=wrap;strokeWidth=2;" parent="1" vertex="1">
          <mxGeometry x="991" y="1385" width="1659" height="308" as="geometry" />
        </mxCell>
        <mxCell id="aFlYWg9zhVKmgG-HFgYg-2" value="VPSS Offline&#xa;/dev/video20" style="whiteSpace=wrap;strokeWidth=2;align=left;verticalAlign=top;" parent="1" vertex="1">
          <mxGeometry x="2305" y="1564" width="275" height="104" as="geometry" />
        </mxCell>
        <mxCell id="aFlYWg9zhVKmgG-HFgYg-3" value="VPSS Scale&#xa;/dev/video21-40" style="whiteSpace=wrap;strokeWidth=2;align=left;verticalAlign=top;" parent="1" vertex="1">
          <mxGeometry x="1350" y="1564" width="935" height="104" as="geometry" />
        </mxCell>
        <mxCell id="aFlYWg9zhVKmgG-HFgYg-4" value="VPSS Subdev" style="whiteSpace=wrap;strokeWidth=2;align=left;verticalAlign=top;" parent="1" vertex="1">
          <mxGeometry x="1011" y="1410" width="1427" height="104" as="geometry" />
        </mxCell>
        <mxCell id="aFlYWg9zhVKmgG-HFgYg-5" value="ISP&#xa;/dev/media1" style="whiteSpace=wrap;strokeWidth=2;align=left;" parent="1" vertex="1">
          <mxGeometry x="136" y="770" width="2723" height="554" as="geometry" />
        </mxCell>
        <mxCell id="aFlYWg9zhVKmgG-HFgYg-6" value="ISP Control" style="whiteSpace=wrap;strokeWidth=2;align=left;verticalAlign=top;" parent="1" vertex="1">
          <mxGeometry x="2157" y="984" width="687" height="326" as="geometry" />
        </mxCell>
        <mxCell id="aFlYWg9zhVKmgG-HFgYg-7" value="ISP Raw" style="whiteSpace=wrap;strokeWidth=2;verticalAlign=top;" parent="1" vertex="1">
          <mxGeometry x="1872" y="1009" width="249" height="276" as="geometry" />
        </mxCell>
        <mxCell id="aFlYWg9zhVKmgG-HFgYg-8" value="rkisp_rawrd0_m&#xa;/dev/video15" style="whiteSpace=wrap;strokeWidth=2;" parent="aFlYWg9zhVKmgG-HFgYg-7" vertex="1">
          <mxGeometry x="46" y="43" width="174" height="78" as="geometry" />
        </mxCell>
        <mxCell id="aFlYWg9zhVKmgG-HFgYg-9" value="rkisp_rawrd2_s&#xa;/dev/video16" style="whiteSpace=wrap;strokeWidth=2;" parent="aFlYWg9zhVKmgG-HFgYg-7" vertex="1">
          <mxGeometry x="49" y="171" width="168" height="78" as="geometry" />
        </mxCell>
        <mxCell id="aFlYWg9zhVKmgG-HFgYg-10" value="ISP Paths" style="whiteSpace=wrap;strokeWidth=2;align=left;verticalAlign=top;" parent="1" vertex="1">
          <mxGeometry x="971" y="984" width="866" height="326" as="geometry" />
        </mxCell>
        <mxCell id="aFlYWg9zhVKmgG-HFgYg-11" value="ISP Subdev&#xa;rkisp-isp-subdev&#xa;/dev/v4l-subdev4" style="whiteSpace=wrap;strokeWidth=2;" parent="1" vertex="1">
          <mxGeometry x="404" y="806" width="2412" height="128" as="geometry" />
        </mxCell>
        <mxCell id="aFlYWg9zhVKmgG-HFgYg-12" value="CIF/MIPI-CSI2&#xa;/dev/media0" style="whiteSpace=wrap;strokeWidth=2;align=left;verticalAlign=top;" parent="1" vertex="1">
          <mxGeometry x="146.5" y="340" width="2954" height="411" as="geometry" />
        </mxCell>
        <mxCell id="aFlYWg9zhVKmgG-HFgYg-13" value="Tool Channels" style="whiteSpace=wrap;strokeWidth=2;align=left;verticalAlign=top;" parent="1" vertex="1">
          <mxGeometry x="2414" y="578" width="668" height="128" as="geometry" />
        </mxCell>
        <mxCell id="aFlYWg9zhVKmgG-HFgYg-14" value="Scale Channels" style="whiteSpace=wrap;strokeWidth=2;align=left;verticalAlign=top;" parent="1" vertex="1">
          <mxGeometry x="1491" y="578" width="903" height="128" as="geometry" />
        </mxCell>
        <mxCell id="aFlYWg9zhVKmgG-HFgYg-15" value="Raw Streams" style="whiteSpace=wrap;strokeWidth=2;align=left;verticalAlign=top;" parent="1" vertex="1">
          <mxGeometry x="426" y="578" width="1045" height="128" as="geometry" />
        </mxCell>
        <mxCell id="aFlYWg9zhVKmgG-HFgYg-16" value="MIPI-CSI2&#xa;rockchip-mipi-csi2&#xa;/dev/v4l-subdev1" style="whiteSpace=wrap;strokeWidth=2;align=left;verticalAlign=top;" parent="1" vertex="1">
          <mxGeometry x="162" y="400" width="2896" height="150" as="geometry" />
        </mxCell>
        <mxCell id="aFlYWg9zhVKmgG-HFgYg-17" value="MIPI D-PHY&#xa;rockchip-csi2-dphy0&#xa;/dev/v4l-subdev2" style="whiteSpace=wrap;strokeWidth=2;align=left;verticalAlign=top;" parent="1" vertex="1">
          <mxGeometry x="30" y="190" width="388" height="135" as="geometry" />
        </mxCell>
        <mxCell id="aFlYWg9zhVKmgG-HFgYg-18" value="Sensor&#xa;m01_b_og05b10&#xa;/dev/v4l-subdev3" style="whiteSpace=wrap;strokeWidth=2;align=left;verticalAlign=top;" parent="1" vertex="1">
          <mxGeometry x="-50" y="20" width="390" height="128" as="geometry" />
        </mxCell>
        <mxCell id="aFlYWg9zhVKmgG-HFgYg-19" value="Source&#xa;SBGGR10_1X10/2592x1944" style="whiteSpace=wrap;strokeWidth=2;" parent="1" vertex="1">
          <mxGeometry x="55" y="45" width="250" height="78" as="geometry" />
        </mxCell>
        <mxCell id="aFlYWg9zhVKmgG-HFgYg-20" value="Sink" style="whiteSpace=wrap;strokeWidth=2;" parent="1" vertex="1">
          <mxGeometry x="136" y="246" width="89" height="54" as="geometry" />
        </mxCell>
        <mxCell id="aFlYWg9zhVKmgG-HFgYg-21" value="Source" style="whiteSpace=wrap;strokeWidth=2;" parent="1" vertex="1">
          <mxGeometry x="275" y="246" width="108" height="54" as="geometry" />
        </mxCell>
        <mxCell id="aFlYWg9zhVKmgG-HFgYg-22" value="Sink&#xa;SBGGR10_1X10/2592x1944" style="whiteSpace=wrap;strokeWidth=2;" parent="1" vertex="1">
          <mxGeometry x="204" y="450" width="250" height="78" as="geometry" />
        </mxCell>
        <mxCell id="aFlYWg9zhVKmgG-HFgYg-23" value="Source 1" style="whiteSpace=wrap;strokeWidth=2;" parent="1" vertex="1">
          <mxGeometry x="504" y="437" width="121" height="54" as="geometry" />
        </mxCell>
        <mxCell id="aFlYWg9zhVKmgG-HFgYg-24" value="Source 2" style="whiteSpace=wrap;strokeWidth=2;" parent="1" vertex="1">
          <mxGeometry x="760" y="437" width="121" height="54" as="geometry" />
        </mxCell>
        <mxCell id="aFlYWg9zhVKmgG-HFgYg-25" value="Source 3" style="whiteSpace=wrap;strokeWidth=2;" parent="1" vertex="1">
          <mxGeometry x="1016" y="437" width="121" height="54" as="geometry" />
        </mxCell>
        <mxCell id="aFlYWg9zhVKmgG-HFgYg-26" value="Source 4" style="whiteSpace=wrap;strokeWidth=2;" parent="1" vertex="1">
          <mxGeometry x="1273" y="437" width="121" height="54" as="geometry" />
        </mxCell>
        <mxCell id="aFlYWg9zhVKmgG-HFgYg-27" value="Source 5" style="whiteSpace=wrap;strokeWidth=2;" parent="1" vertex="1">
          <mxGeometry x="1551" y="437" width="121" height="54" as="geometry" />
        </mxCell>
        <mxCell id="aFlYWg9zhVKmgG-HFgYg-28" value="Source 6" style="whiteSpace=wrap;strokeWidth=2;" parent="1" vertex="1">
          <mxGeometry x="1772" y="437" width="121" height="54" as="geometry" />
        </mxCell>
        <mxCell id="aFlYWg9zhVKmgG-HFgYg-29" value="Source 7" style="whiteSpace=wrap;strokeWidth=2;" parent="1" vertex="1">
          <mxGeometry x="1993" y="437" width="121" height="54" as="geometry" />
        </mxCell>
        <mxCell id="aFlYWg9zhVKmgG-HFgYg-30" value="Source 8" style="whiteSpace=wrap;strokeWidth=2;" parent="1" vertex="1">
          <mxGeometry x="2213" y="437" width="121" height="54" as="geometry" />
        </mxCell>
        <mxCell id="aFlYWg9zhVKmgG-HFgYg-31" value="Source 9" style="whiteSpace=wrap;strokeWidth=2;" parent="1" vertex="1">
          <mxGeometry x="2472" y="437" width="121" height="54" as="geometry" />
        </mxCell>
        <mxCell id="aFlYWg9zhVKmgG-HFgYg-32" value="Source 10" style="whiteSpace=wrap;strokeWidth=2;" parent="1" vertex="1">
          <mxGeometry x="2684" y="437" width="130" height="54" as="geometry" />
        </mxCell>
        <mxCell id="aFlYWg9zhVKmgG-HFgYg-33" value="Source 11" style="whiteSpace=wrap;strokeWidth=2;" parent="1" vertex="1">
          <mxGeometry x="2900" y="437" width="130" height="54" as="geometry" />
        </mxCell>
        <mxCell id="aFlYWg9zhVKmgG-HFgYg-34" value="stream_cif_mipi_id0&#xa;/dev/video0" style="whiteSpace=wrap;strokeWidth=2;" parent="1" vertex="1">
          <mxGeometry x="461" y="603" width="206" height="78" as="geometry" />
        </mxCell>
        <mxCell id="aFlYWg9zhVKmgG-HFgYg-35" value="stream_cif_mipi_id1&#xa;/dev/video1" style="whiteSpace=wrap;strokeWidth=2;" parent="1" vertex="1">
          <mxGeometry x="718" y="603" width="206" height="78" as="geometry" />
        </mxCell>
        <mxCell id="aFlYWg9zhVKmgG-HFgYg-36" value="stream_cif_mipi_id2&#xa;/dev/video2" style="whiteSpace=wrap;strokeWidth=2;" parent="1" vertex="1">
          <mxGeometry x="974" y="603" width="206" height="78" as="geometry" />
        </mxCell>
        <mxCell id="aFlYWg9zhVKmgG-HFgYg-37" value="stream_cif_mipi_id3&#xa;/dev/video3" style="whiteSpace=wrap;strokeWidth=2;" parent="1" vertex="1">
          <mxGeometry x="1230" y="603" width="206" height="78" as="geometry" />
        </mxCell>
        <mxCell id="aFlYWg9zhVKmgG-HFgYg-38" value="rkcif_scale_ch0&#xa;/dev/video4" style="whiteSpace=wrap;strokeWidth=2;" parent="1" vertex="1">
          <mxGeometry x="1526" y="603" width="171" height="78" as="geometry" />
        </mxCell>
        <mxCell id="aFlYWg9zhVKmgG-HFgYg-39" value="rkcif_scale_ch1&#xa;/dev/video5" style="whiteSpace=wrap;strokeWidth=2;" parent="1" vertex="1">
          <mxGeometry x="1747" y="603" width="171" height="78" as="geometry" />
        </mxCell>
        <mxCell id="aFlYWg9zhVKmgG-HFgYg-40" value="rkcif_scale_ch2&#xa;/dev/video6" style="whiteSpace=wrap;strokeWidth=2;" parent="1" vertex="1">
          <mxGeometry x="1968" y="603" width="171" height="78" as="geometry" />
        </mxCell>
        <mxCell id="aFlYWg9zhVKmgG-HFgYg-41" value="rkcif_scale_ch3&#xa;/dev/video7" style="whiteSpace=wrap;strokeWidth=2;" parent="1" vertex="1">
          <mxGeometry x="2189" y="603" width="171" height="78" as="geometry" />
        </mxCell>
        <mxCell id="aFlYWg9zhVKmgG-HFgYg-42" value="rkcif_tools_id0&#xa;/dev/video8" style="whiteSpace=wrap;strokeWidth=2;" parent="1" vertex="1">
          <mxGeometry x="2449" y="603" width="166" height="78" as="geometry" />
        </mxCell>
        <mxCell id="aFlYWg9zhVKmgG-HFgYg-43" value="rkcif_tools_id1&#xa;/dev/video9" style="whiteSpace=wrap;strokeWidth=2;" parent="1" vertex="1">
          <mxGeometry x="2665" y="603" width="166" height="78" as="geometry" />
        </mxCell>
        <mxCell id="aFlYWg9zhVKmgG-HFgYg-44" value="rkcif_tools_id2&#xa;/dev/video10" style="whiteSpace=wrap;strokeWidth=2;" parent="1" vertex="1">
          <mxGeometry x="2882" y="603" width="166" height="78" as="geometry" />
        </mxCell>
        <mxCell id="aFlYWg9zhVKmgG-HFgYg-45" value="Sink&#xa;SBGGR10_1X10/2592x1944" style="whiteSpace=wrap;strokeWidth=2;" parent="1" vertex="1">
          <mxGeometry x="439" y="831" width="250" height="78" as="geometry" />
        </mxCell>
        <mxCell id="aFlYWg9zhVKmgG-HFgYg-46" value="Source&#xa;YUYV8_2X8/2592x1944" style="whiteSpace=wrap;strokeWidth=2;" parent="1" vertex="1">
          <mxGeometry x="1191" y="831" width="224" height="78" as="geometry" />
        </mxCell>
        <mxCell id="aFlYWg9zhVKmgG-HFgYg-47" value="Statistics" style="whiteSpace=wrap;strokeWidth=2;" parent="1" vertex="1">
          <mxGeometry x="2316" y="843" width="125" height="54" as="geometry" />
        </mxCell>
        <mxCell id="aFlYWg9zhVKmgG-HFgYg-48" value="Parameters" style="whiteSpace=wrap;strokeWidth=2;" parent="1" vertex="1">
          <mxGeometry x="2640" y="843" width="141" height="54" as="geometry" />
        </mxCell>
        <mxCell id="aFlYWg9zhVKmgG-HFgYg-49" value="rkisp_mainpath&#xa;/dev/video11" style="whiteSpace=wrap;strokeWidth=2;" parent="1" vertex="1">
          <mxGeometry x="1006" y="1108" width="170" height="78" as="geometry" />
        </mxCell>
        <mxCell id="aFlYWg9zhVKmgG-HFgYg-50" value="rkisp_selfpath&#xa;/dev/video12" style="whiteSpace=wrap;strokeWidth=2;" parent="1" vertex="1">
          <mxGeometry x="1226" y="1108" width="161" height="78" as="geometry" />
        </mxCell>
        <mxCell id="aFlYWg9zhVKmgG-HFgYg-51" value="rkisp_ldcpath&#xa;/dev/video13" style="whiteSpace=wrap;strokeWidth=2;" parent="1" vertex="1">
          <mxGeometry x="1437" y="1108" width="158" height="78" as="geometry" />
        </mxCell>
        <mxCell id="aFlYWg9zhVKmgG-HFgYg-52" value="rkisp_iqtool&#xa;/dev/video14" style="whiteSpace=wrap;strokeWidth=2;" parent="1" vertex="1">
          <mxGeometry x="1645" y="1108" width="158" height="78" as="geometry" />
        </mxCell>
        <mxCell id="aFlYWg9zhVKmgG-HFgYg-53" value="rkisp-statistics&#xa;/dev/video17" style="whiteSpace=wrap;strokeWidth=2;" parent="1" vertex="1">
          <mxGeometry x="2192" y="1108" width="164" height="78" as="geometry" />
        </mxCell>
        <mxCell id="aFlYWg9zhVKmgG-HFgYg-54" value="rkisp-input-params&#xa;/dev/video18" style="whiteSpace=wrap;strokeWidth=2;" parent="1" vertex="1">
          <mxGeometry x="2613" y="1108" width="195" height="78" as="geometry" />
        </mxCell>
        <mxCell id="aFlYWg9zhVKmgG-HFgYg-55" value="rkisp-pdaf&#xa;/dev/video19" style="whiteSpace=wrap;strokeWidth=2;" parent="1" vertex="1">
          <mxGeometry x="2406" y="1108" width="158" height="78" as="geometry" />
        </mxCell>
        <mxCell id="aFlYWg9zhVKmgG-HFgYg-56" value="Sink" style="whiteSpace=wrap;strokeWidth=2;" parent="1" vertex="1">
          <mxGeometry x="1046" y="1435" width="89" height="54" as="geometry" />
        </mxCell>
        <mxCell id="aFlYWg9zhVKmgG-HFgYg-57" value="Source" style="whiteSpace=wrap;strokeWidth=2;" parent="1" vertex="1">
          <mxGeometry x="1704" y="1435" width="108" height="54" as="geometry" />
        </mxCell>
        <mxCell id="aFlYWg9zhVKmgG-HFgYg-58" value="rkvpss_scale0" style="whiteSpace=wrap;strokeWidth=2;" parent="1" vertex="1">
          <mxGeometry x="1472" y="1589" width="157" height="54" as="geometry" />
        </mxCell>
        <mxCell id="aFlYWg9zhVKmgG-HFgYg-59" value="rkvpss_scale1" style="whiteSpace=wrap;strokeWidth=2;" parent="1" vertex="1">
          <mxGeometry x="1679" y="1589" width="157" height="54" as="geometry" />
        </mxCell>
        <mxCell id="aFlYWg9zhVKmgG-HFgYg-60" value="rkvpss_scale2" style="whiteSpace=wrap;strokeWidth=2;" parent="1" vertex="1">
          <mxGeometry x="1886" y="1589" width="157" height="54" as="geometry" />
        </mxCell>
        <mxCell id="aFlYWg9zhVKmgG-HFgYg-61" value="rkvpss_scale3" style="whiteSpace=wrap;strokeWidth=2;" parent="1" vertex="1">
          <mxGeometry x="2093" y="1589" width="157" height="54" as="geometry" />
        </mxCell>
        <mxCell id="aFlYWg9zhVKmgG-HFgYg-62" value="rkvpss-offline" style="whiteSpace=wrap;strokeWidth=2;" parent="1" vertex="1">
          <mxGeometry x="2390" y="1589" width="157" height="54" as="geometry" />
        </mxCell>
        <mxCell id="aFlYWg9zhVKmgG-HFgYg-63" value="MIPI-CSI2" style="curved=1;startArrow=none;endArrow=block;exitX=0.5;exitY=1;entryX=0.5;entryY=0;rounded=0;" parent="1" source="aFlYWg9zhVKmgG-HFgYg-19" target="aFlYWg9zhVKmgG-HFgYg-20" edge="1">
          <mxGeometry relative="1" as="geometry">
            <Array as="points" />
          </mxGeometry>
        </mxCell>
        <mxCell id="aFlYWg9zhVKmgG-HFgYg-64" value="" style="curved=1;startArrow=none;endArrow=block;exitX=0.5;exitY=1;entryX=0.5;entryY=0;rounded=0;" parent="1" source="aFlYWg9zhVKmgG-HFgYg-21" target="aFlYWg9zhVKmgG-HFgYg-22" edge="1">
          <mxGeometry relative="1" as="geometry">
            <Array as="points" />
          </mxGeometry>
        </mxCell>
        <mxCell id="aFlYWg9zhVKmgG-HFgYg-65" value="" style="curved=1;startArrow=none;endArrow=block;exitX=0.5;exitY=1;entryX=0.5;entryY=0;rounded=0;" parent="1" source="aFlYWg9zhVKmgG-HFgYg-23" target="aFlYWg9zhVKmgG-HFgYg-34" edge="1">
          <mxGeometry relative="1" as="geometry">
            <Array as="points" />
          </mxGeometry>
        </mxCell>
        <mxCell id="aFlYWg9zhVKmgG-HFgYg-66" value="" style="curved=1;startArrow=none;endArrow=block;exitX=0.5;exitY=1;entryX=0.5;entryY=0;rounded=0;" parent="1" source="aFlYWg9zhVKmgG-HFgYg-24" target="aFlYWg9zhVKmgG-HFgYg-35" edge="1">
          <mxGeometry relative="1" as="geometry">
            <Array as="points" />
          </mxGeometry>
        </mxCell>
        <mxCell id="aFlYWg9zhVKmgG-HFgYg-67" value="" style="curved=1;startArrow=none;endArrow=block;exitX=0.5;exitY=1;entryX=0.5;entryY=0;rounded=0;" parent="1" source="aFlYWg9zhVKmgG-HFgYg-25" target="aFlYWg9zhVKmgG-HFgYg-36" edge="1">
          <mxGeometry relative="1" as="geometry">
            <Array as="points" />
          </mxGeometry>
        </mxCell>
        <mxCell id="aFlYWg9zhVKmgG-HFgYg-68" value="" style="curved=1;startArrow=none;endArrow=block;exitX=0.5;exitY=1;entryX=0.5;entryY=0;rounded=0;" parent="1" source="aFlYWg9zhVKmgG-HFgYg-26" target="aFlYWg9zhVKmgG-HFgYg-37" edge="1">
          <mxGeometry relative="1" as="geometry">
            <Array as="points" />
          </mxGeometry>
        </mxCell>
        <mxCell id="aFlYWg9zhVKmgG-HFgYg-69" value="" style="curved=1;startArrow=none;endArrow=block;exitX=0.5;exitY=1;entryX=0.5;entryY=0;rounded=0;" parent="1" source="aFlYWg9zhVKmgG-HFgYg-27" target="aFlYWg9zhVKmgG-HFgYg-38" edge="1">
          <mxGeometry relative="1" as="geometry">
            <Array as="points" />
          </mxGeometry>
        </mxCell>
        <mxCell id="aFlYWg9zhVKmgG-HFgYg-70" value="" style="curved=1;startArrow=none;endArrow=block;exitX=0.5;exitY=1;entryX=0.5;entryY=0;rounded=0;" parent="1" source="aFlYWg9zhVKmgG-HFgYg-28" target="aFlYWg9zhVKmgG-HFgYg-39" edge="1">
          <mxGeometry relative="1" as="geometry">
            <Array as="points" />
          </mxGeometry>
        </mxCell>
        <mxCell id="aFlYWg9zhVKmgG-HFgYg-71" value="" style="curved=1;startArrow=none;endArrow=block;exitX=0.5;exitY=1;entryX=0.5;entryY=0;rounded=0;" parent="1" source="aFlYWg9zhVKmgG-HFgYg-29" target="aFlYWg9zhVKmgG-HFgYg-40" edge="1">
          <mxGeometry relative="1" as="geometry">
            <Array as="points" />
          </mxGeometry>
        </mxCell>
        <mxCell id="aFlYWg9zhVKmgG-HFgYg-72" value="" style="curved=1;startArrow=none;endArrow=block;exitX=0.5;exitY=1;entryX=0.5;entryY=0;rounded=0;" parent="1" source="aFlYWg9zhVKmgG-HFgYg-30" target="aFlYWg9zhVKmgG-HFgYg-41" edge="1">
          <mxGeometry relative="1" as="geometry">
            <Array as="points" />
          </mxGeometry>
        </mxCell>
        <mxCell id="aFlYWg9zhVKmgG-HFgYg-73" value="" style="curved=1;startArrow=none;endArrow=block;exitX=0.5;exitY=1;entryX=0.5;entryY=0;rounded=0;" parent="1" source="aFlYWg9zhVKmgG-HFgYg-31" target="aFlYWg9zhVKmgG-HFgYg-42" edge="1">
          <mxGeometry relative="1" as="geometry">
            <Array as="points" />
          </mxGeometry>
        </mxCell>
        <mxCell id="aFlYWg9zhVKmgG-HFgYg-74" value="" style="curved=1;startArrow=none;endArrow=block;exitX=0.5;exitY=1;entryX=0.5;entryY=0;rounded=0;" parent="1" source="aFlYWg9zhVKmgG-HFgYg-32" target="aFlYWg9zhVKmgG-HFgYg-43" edge="1">
          <mxGeometry relative="1" as="geometry">
            <Array as="points" />
          </mxGeometry>
        </mxCell>
        <mxCell id="aFlYWg9zhVKmgG-HFgYg-75" value="" style="curved=1;startArrow=none;endArrow=block;exitX=0.5;exitY=1;entryX=0.5;entryY=0;rounded=0;" parent="1" source="aFlYWg9zhVKmgG-HFgYg-33" target="aFlYWg9zhVKmgG-HFgYg-44" edge="1">
          <mxGeometry relative="1" as="geometry">
            <Array as="points" />
          </mxGeometry>
        </mxCell>
        <mxCell id="aFlYWg9zhVKmgG-HFgYg-76" value="" style="curved=1;startArrow=none;endArrow=block;exitX=0.5;exitY=1;entryX=0.5;entryY=0;rounded=0;" parent="1" source="aFlYWg9zhVKmgG-HFgYg-34" target="aFlYWg9zhVKmgG-HFgYg-45" edge="1">
          <mxGeometry relative="1" as="geometry">
            <Array as="points" />
          </mxGeometry>
        </mxCell>
        <mxCell id="aFlYWg9zhVKmgG-HFgYg-77" value="" style="curved=1;startArrow=none;endArrow=block;exitX=0;exitY=0.93;entryX=0.5;entryY=0;rounded=0;" parent="1" source="aFlYWg9zhVKmgG-HFgYg-46" target="aFlYWg9zhVKmgG-HFgYg-49" edge="1">
          <mxGeometry relative="1" as="geometry">
            <Array as="points">
              <mxPoint x="1091" y="934" />
            </Array>
          </mxGeometry>
        </mxCell>
        <mxCell id="aFlYWg9zhVKmgG-HFgYg-78" value="" style="curved=1;startArrow=none;endArrow=block;exitX=0.51;exitY=1;entryX=0.5;entryY=0;rounded=0;" parent="1" source="aFlYWg9zhVKmgG-HFgYg-46" target="aFlYWg9zhVKmgG-HFgYg-50" edge="1">
          <mxGeometry relative="1" as="geometry">
            <Array as="points">
              <mxPoint x="1306" y="934" />
            </Array>
          </mxGeometry>
        </mxCell>
        <mxCell id="aFlYWg9zhVKmgG-HFgYg-79" value="" style="curved=1;startArrow=none;endArrow=block;exitX=1;exitY=0.93;entryX=0.5;entryY=0;rounded=0;" parent="1" source="aFlYWg9zhVKmgG-HFgYg-46" target="aFlYWg9zhVKmgG-HFgYg-51" edge="1">
          <mxGeometry relative="1" as="geometry">
            <Array as="points">
              <mxPoint x="1516" y="934" />
            </Array>
          </mxGeometry>
        </mxCell>
        <mxCell id="aFlYWg9zhVKmgG-HFgYg-80" value="" style="curved=1;startArrow=none;endArrow=block;exitX=1;exitY=0.72;entryX=0.5;entryY=0;rounded=0;" parent="1" source="aFlYWg9zhVKmgG-HFgYg-46" target="aFlYWg9zhVKmgG-HFgYg-52" edge="1">
          <mxGeometry relative="1" as="geometry">
            <Array as="points">
              <mxPoint x="1723" y="934" />
            </Array>
          </mxGeometry>
        </mxCell>
        <mxCell id="aFlYWg9zhVKmgG-HFgYg-81" value="" style="curved=1;startArrow=none;endArrow=block;exitX=0.15;exitY=1;entryX=0.5;entryY=0;rounded=0;" parent="1" source="aFlYWg9zhVKmgG-HFgYg-47" target="aFlYWg9zhVKmgG-HFgYg-53" edge="1">
          <mxGeometry relative="1" as="geometry">
            <Array as="points">
              <mxPoint x="2274" y="934" />
            </Array>
          </mxGeometry>
        </mxCell>
        <mxCell id="aFlYWg9zhVKmgG-HFgYg-82" value="" style="curved=1;startArrow=none;endArrow=block;exitX=0.86;exitY=1;entryX=0.5;entryY=0;rounded=0;" parent="1" source="aFlYWg9zhVKmgG-HFgYg-47" target="aFlYWg9zhVKmgG-HFgYg-55" edge="1">
          <mxGeometry relative="1" as="geometry">
            <Array as="points">
              <mxPoint x="2484" y="934" />
            </Array>
          </mxGeometry>
        </mxCell>
        <mxCell id="aFlYWg9zhVKmgG-HFgYg-83" value="" style="curved=1;startArrow=none;endArrow=block;exitX=0.5;exitY=1;entryX=0.5;entryY=0;rounded=0;" parent="1" source="aFlYWg9zhVKmgG-HFgYg-48" target="aFlYWg9zhVKmgG-HFgYg-54" edge="1">
          <mxGeometry relative="1" as="geometry">
            <Array as="points" />
          </mxGeometry>
        </mxCell>
        <mxCell id="aFlYWg9zhVKmgG-HFgYg-84" value="" style="curved=1;startArrow=none;endArrow=block;exitX=0.5;exitY=1;entryX=0.51;entryY=0;rounded=0;" parent="1" source="aFlYWg9zhVKmgG-HFgYg-49" target="aFlYWg9zhVKmgG-HFgYg-56" edge="1">
          <mxGeometry relative="1" as="geometry">
            <Array as="points" />
          </mxGeometry>
        </mxCell>
        <mxCell id="aFlYWg9zhVKmgG-HFgYg-85" value="" style="curved=1;startArrow=none;endArrow=block;exitX=0;exitY=0.75;entryX=0.5;entryY=0;rounded=0;" parent="1" source="aFlYWg9zhVKmgG-HFgYg-57" target="aFlYWg9zhVKmgG-HFgYg-58" edge="1">
          <mxGeometry relative="1" as="geometry">
            <Array as="points">
              <mxPoint x="1551" y="1514" />
            </Array>
          </mxGeometry>
        </mxCell>
        <mxCell id="aFlYWg9zhVKmgG-HFgYg-86" value="" style="curved=1;startArrow=none;endArrow=block;exitX=0.5;exitY=1;entryX=0.5;entryY=0;rounded=0;" parent="1" source="aFlYWg9zhVKmgG-HFgYg-57" target="aFlYWg9zhVKmgG-HFgYg-59" edge="1">
          <mxGeometry relative="1" as="geometry">
            <Array as="points" />
          </mxGeometry>
        </mxCell>
        <mxCell id="aFlYWg9zhVKmgG-HFgYg-87" value="" style="curved=1;startArrow=none;endArrow=block;exitX=1;exitY=0.75;entryX=0.5;entryY=0;rounded=0;" parent="1" source="aFlYWg9zhVKmgG-HFgYg-57" target="aFlYWg9zhVKmgG-HFgYg-60" edge="1">
          <mxGeometry relative="1" as="geometry">
            <Array as="points">
              <mxPoint x="1965" y="1514" />
            </Array>
          </mxGeometry>
        </mxCell>
        <mxCell id="aFlYWg9zhVKmgG-HFgYg-88" value="" style="curved=1;startArrow=none;endArrow=block;exitX=1;exitY=0.63;entryX=0.5;entryY=0;rounded=0;" parent="1" source="aFlYWg9zhVKmgG-HFgYg-57" target="aFlYWg9zhVKmgG-HFgYg-61" edge="1">
          <mxGeometry relative="1" as="geometry">
            <Array as="points">
              <mxPoint x="2172" y="1514" />
            </Array>
          </mxGeometry>
        </mxCell>
        <mxCell id="aFlYWg9zhVKmgG-HFgYg-89" value="" style="curved=1;startArrow=none;endArrow=block;exitX=1;exitY=0.58;entryX=0.5;entryY=0;rounded=0;" parent="1" source="aFlYWg9zhVKmgG-HFgYg-57" target="aFlYWg9zhVKmgG-HFgYg-62" edge="1">
          <mxGeometry relative="1" as="geometry">
            <Array as="points">
              <mxPoint x="2419" y="1514" />
            </Array>
          </mxGeometry>
        </mxCell>
        <mxCell id="pPnsUs8tahBJZPVXPXv9-8" value="rkcif-mipi-lvds &#xa;/dev/v4l-subdev5" style="whiteSpace=wrap;strokeWidth=2;verticalAlign=top;container=0;" vertex="1" parent="1">
          <mxGeometry x="404" y="1030" width="249" height="166" as="geometry" />
        </mxCell>
        <mxCell id="pPnsUs8tahBJZPVXPXv9-9" value="source" style="whiteSpace=wrap;strokeWidth=2;" vertex="1" parent="1">
          <mxGeometry x="450" y="1073" width="174" height="78" as="geometry" />
        </mxCell>
        <mxCell id="pPnsUs8tahBJZPVXPXv9-14" style="edgeStyle=orthogonalEdgeStyle;rounded=0;orthogonalLoop=1;jettySize=auto;html=1;exitX=0.5;exitY=0;exitDx=0;exitDy=0;entryX=0.05;entryY=0.969;entryDx=0;entryDy=0;entryPerimeter=0;" edge="1" parent="1" source="pPnsUs8tahBJZPVXPXv9-8" target="aFlYWg9zhVKmgG-HFgYg-11">
          <mxGeometry relative="1" as="geometry" />
        </mxCell>
      </root>
    </mxGraphModel>
  </diagram>
</mxfile>
